  0
SECTION
  2
HEADER
  9
$ANGBASE
  50
0.0
  9
$ANGDIR
  70
1
  9
$MEASUREMENT
  70
0
  0
ENDSEC
  0
SECTION
  2
TABLES
  0
TABLE
  2
LTYPE
  70
4
  0
LTYPE
  5
40F
  2
CONTINUOUS
  70
0
  3
Solid line
  72
65
  73
0
  40
0.0
  0
LTYPE
  5
410
  2
DASHDOT
 70
0
  3
Dash Dot ____ _ ____ _
 72
65
 73
4
 40
2.0
 49
1.25
 49
-0.25
 49
0.25
 49
-0.25
  0
LTYPE
  5
411
  2
DASHED
 70
0
  3
Dashed __ __ __ __ __
 72
65
 73
2
 40
0.75
 49
0.5
 49
-0.25
  0
LTYPE
  5
43B
  2
DOTTED
 70
0
  3
Dotted .  .  .  .
 72
65
 73
2
 40
0.2
 49
0.0
 49
-0.2
  0
ENDTAB
  0
TABLE
  2
STYLE
  70
4
  0
STYLE
  2
KICAD
  70
0
  40
0
  41
1
  42
1
  50
0
  71
0
  3
isocp.shx
  0
STYLE
  2
KICADB
  70
0
  40
0
  41
1
  42
1
  50
0
  71
0
  3
isocp.shx
  0
STYLE
  2
KICADI
  70
0
  40
0
  41
1
  42
1
  50
15
  71
0
  3
isocp.shx
  0
STYLE
  2
KICADBI
  70
0
  40
0
  41
1
  42
1
  50
15
  71
0
  3
isocp.shx
  0
ENDTAB
  0
TABLE
  2
LAYER
  70
1
  0
LAYER
  2
BLACK
  70
0
  62
7
  6
CONTINUOUS
  0
ENDTAB
  0
ENDSEC
  0
SECTION
  2
ENTITIES
0
LINE
8
BLACK
6
CONTINUOUS
10
3.1883857874015749
20
-2.5053150393700787
11
9.6633857874015749
21
-2.5053150393700787
0
LINE
8
BLACK
6
CONTINUOUS
10
9.6633857874015749
20
-2.5053150393700787
11
9.6633857874015749
21
-8.9803150393700779
0
LINE
8
BLACK
6
CONTINUOUS
10
9.6633857874015749
20
-8.9803150393700779
11
3.1883857874015749
21
-8.9803150393700779
0
LINE
8
BLACK
6
CONTINUOUS
10
3.1883857874015749
20
-8.9803150393700779
11
3.1883857874015749
21
-2.5053150393700787
0
LINE
8
BLACK
6
CONTINUOUS
10
10.5383857874015749
20
-1.8053150393700788
11
10.4883857874015742
21
-1.8553150393700788
0
LINE
8
BLACK
6
CONTINUOUS
10
10.4883857874015742
20
-1.8553150393700788
11
10.4883857874015742
21
-2.2053150393700789
0
LINE
8
BLACK
6
CONTINUOUS
10
10.4883857874015742
20
-2.2053150393700789
11
10.5383857874015749
21
-2.2553150393700787
0
LINE
8
BLACK
6
CONTINUOUS
10
10.5383857874015749
20
-2.2553150393700787
11
10.5383857874015749
21
-9.8553150393700779
0
LINE
8
BLACK
6
CONTINUOUS
10
10.5383857874015749
20
-9.8553150393700779
11
2.2883857874015749
21
-9.8553150393700779
0
LINE
8
BLACK
6
CONTINUOUS
10
2.2883857874015749
20
-9.8553150393700779
11
2.2883857874015749
21
-1.6053150393700788
0
LINE
8
BLACK
6
CONTINUOUS
10
2.2883857874015749
20
-1.6053150393700788
11
10.5383857874015749
21
-1.6053150393700788
0
LINE
8
BLACK
6
CONTINUOUS
10
10.5383857874015749
20
-1.6053150393700788
11
10.5383857874015749
21
-1.8053150393700788
0
LINE
8
BLACK
6
CONTINUOUS
10
2.6840550787401574
20
-2.0009843307086612
11
2.8927164960629921
21
-2.2096457480314959
0
LINE
8
BLACK
6
CONTINUOUS
10
2.8927164960629921
20
-2.0009843307086612
11
2.6840550787401574
21
-2.2096457480314959
0
LINE
8
BLACK
6
CONTINUOUS
10
2.6840550787401574
20
-9.4509843307086605
11
2.8927164960629921
21
-9.6596457480314957
0
LINE
8
BLACK
6
CONTINUOUS
10
2.8927164960629921
20
-9.4509843307086605
11
2.6840550787401574
21
-9.6596457480314957
0
LINE
8
BLACK
6
CONTINUOUS
10
9.9840550787401572
20
-9.4509843307086605
11
10.1927164960629923
21
-9.6596457480314957
0
LINE
8
BLACK
6
CONTINUOUS
10
10.1927164960629923
20
-9.4509843307086605
11
9.9840550787401572
21
-9.6596457480314957
0
LINE
8
BLACK
6
CONTINUOUS
10
10.2840550787401579
20
-3.2562992913385824
11
10.4927164960629913
21
-3.4649607086614171
0
LINE
8
BLACK
6
CONTINUOUS
10
10.4927164960629913
20
-3.2562992913385824
11
10.2840550787401579
21
-3.4649607086614171
0
LINE
8
BLACK
6
CONTINUOUS
10
2.3900695669291339
20
-9.9789307086614176
11
2.3900695669291339
21
-9.9001905511811028
0
LINE
8
BLACK
6
CONTINUOUS
10
2.3900695669291339
20
-9.9001905511811028
11
2.4088172047244094
21
-9.9001905511811028
0
LINE
8
BLACK
6
CONTINUOUS
10
2.4088172047244094
20
-9.9001905511811028
11
2.4200658267716535
21
-9.9039400787401579
0
LINE
8
BLACK
6
CONTINUOUS
10
2.4200658267716535
20
-9.9039400787401579
11
2.4275648818897637
21
-9.9114391338582681
0
LINE
8
BLACK
6
CONTINUOUS
10
2.4275648818897637
20
-9.9114391338582681
11
2.4313144094488188
21
-9.9189381889763784
0
LINE
8
BLACK
6
CONTINUOUS
10
2.4313144094488188
20
-9.9189381889763784
11
2.4350639370078739
21
-9.9339362992125988
0
LINE
8
BLACK
6
CONTINUOUS
10
2.4350639370078739
20
-9.9339362992125988
11
2.4350639370078739
21
-9.9451849212598429
0
LINE
8
BLACK
6
CONTINUOUS
10
2.4350639370078739
20
-9.9451849212598429
11
2.4313144094488188
21
-9.9601830314960633
0
LINE
8
BLACK
6
CONTINUOUS
10
2.4313144094488188
20
-9.9601830314960633
11
2.4275648818897637
21
-9.9676820866141735
0
LINE
8
BLACK
6
CONTINUOUS
10
2.4275648818897637
20
-9.9676820866141735
11
2.4200658267716535
21
-9.9751811811023625
0
LINE
8
BLACK
6
CONTINUOUS
10
2.4200658267716535
20
-9.9751811811023625
11
2.4088172047244094
21
-9.9789307086614176
0
LINE
8
BLACK
6
CONTINUOUS
10
2.4088172047244094
20
-9.9789307086614176
11
2.3900695669291339
21
-9.9789307086614176
0
LINE
8
BLACK
6
CONTINUOUS
10
2.4688097244094487
20
-9.9789307086614176
11
2.4688097244094487
21
-9.9264372440944886
0
LINE
8
BLACK
6
CONTINUOUS
10
2.4688097244094487
20
-9.9414353937007878
11
2.4725592519685038
21
-9.9339362992125988
0
LINE
8
BLACK
6
CONTINUOUS
10
2.4725592519685038
20
-9.9339362992125988
11
2.4763087795275589
21
-9.9301867716535437
0
LINE
8
BLACK
6
CONTINUOUS
10
2.4763087795275589
20
-9.9301867716535437
11
2.4838078346456691
21
-9.9264372440944886
0
LINE
8
BLACK
6
CONTINUOUS
10
2.4838078346456691
20
-9.9264372440944886
11
2.4913069291338581
21
-9.9264372440944886
0
LINE
8
BLACK
6
CONTINUOUS
10
2.5175536220472439
20
-9.9789307086614176
11
2.5175536220472439
21
-9.9264372440944886
0
LINE
8
BLACK
6
CONTINUOUS
10
2.5175536220472439
20
-9.9001905511811028
11
2.5138040944881888
21
-9.9039400787401579
0
LINE
8
BLACK
6
CONTINUOUS
10
2.5138040944881888
20
-9.9039400787401579
11
2.5175536220472439
21
-9.907689606299213
0
LINE
8
BLACK
6
CONTINUOUS
10
2.5175536220472439
20
-9.907689606299213
11
2.521303149606299
21
-9.9039400787401579
0
LINE
8
BLACK
6
CONTINUOUS
10
2.521303149606299
20
-9.9039400787401579
11
2.5175536220472439
21
-9.9001905511811028
0
LINE
8
BLACK
6
CONTINUOUS
10
2.5175536220472439
20
-9.9001905511811028
11
2.5175536220472439
21
-9.907689606299213
0
LINE
8
BLACK
6
CONTINUOUS
10
2.5662975196850395
20
-9.9789307086614176
11
2.5587984645669293
21
-9.9751811811023625
0
LINE
8
BLACK
6
CONTINUOUS
10
2.5587984645669293
20
-9.9751811811023625
11
2.5550489370078742
21
-9.9676820866141735
0
LINE
8
BLACK
6
CONTINUOUS
10
2.5550489370078742
20
-9.9676820866141735
11
2.5550489370078742
21
-9.9001905511811028
0
LINE
8
BLACK
6
CONTINUOUS
10
2.6075423622047245
20
-9.9789307086614176
11
2.6000433070866142
21
-9.9751811811023625
0
LINE
8
BLACK
6
CONTINUOUS
10
2.6000433070866142
20
-9.9751811811023625
11
2.5962937795275591
21
-9.9676820866141735
0
LINE
8
BLACK
6
CONTINUOUS
10
2.5962937795275591
20
-9.9676820866141735
11
2.5962937795275591
21
-9.9001905511811028
0
LINE
8
BLACK
6
CONTINUOUS
10
2.6975311417322834
20
-9.9789307086614176
11
2.6975311417322834
21
-9.9001905511811028
0
LINE
8
BLACK
6
CONTINUOUS
10
2.6975311417322834
20
-9.9001905511811028
11
2.7237778740157479
21
-9.9564335039370082
0
LINE
8
BLACK
6
CONTINUOUS
10
2.7237778740157479
20
-9.9564335039370082
11
2.7500245669291337
21
-9.9001905511811028
0
LINE
8
BLACK
6
CONTINUOUS
10
2.7500245669291337
20
-9.9001905511811028
11
2.7500245669291337
21
-9.9789307086614176
0
LINE
8
BLACK
6
CONTINUOUS
10
2.8212656692913387
20
-9.9789307086614176
11
2.8212656692913387
21
-9.9376858661417327
0
LINE
8
BLACK
6
CONTINUOUS
10
2.8212656692913387
20
-9.9376858661417327
11
2.8175161417322836
21
-9.9301867716535437
0
LINE
8
BLACK
6
CONTINUOUS
10
2.8175161417322836
20
-9.9301867716535437
11
2.8100170866141734
21
-9.9264372440944886
0
LINE
8
BLACK
6
CONTINUOUS
10
2.8100170866141734
20
-9.9264372440944886
11
2.7950189370078737
21
-9.9264372440944886
0
LINE
8
BLACK
6
CONTINUOUS
10
2.7950189370078737
20
-9.9264372440944886
11
2.7875198818897635
21
-9.9301867716535437
0
LINE
8
BLACK
6
CONTINUOUS
10
2.8212656692913387
20
-9.9751811811023625
11
2.8137666141732285
21
-9.9789307086614176
0
LINE
8
BLACK
6
CONTINUOUS
10
2.8137666141732285
20
-9.9789307086614176
11
2.7950189370078737
21
-9.9789307086614176
0
LINE
8
BLACK
6
CONTINUOUS
10
2.7950189370078737
20
-9.9789307086614176
11
2.7875198818897635
21
-9.9751811811023625
0
LINE
8
BLACK
6
CONTINUOUS
10
2.7875198818897635
20
-9.9751811811023625
11
2.7837703543307084
21
-9.9676820866141735
0
LINE
8
BLACK
6
CONTINUOUS
10
2.7837703543307084
20
-9.9676820866141735
11
2.7837703543307084
21
-9.9601830314960633
0
LINE
8
BLACK
6
CONTINUOUS
10
2.7837703543307084
20
-9.9601830314960633
11
2.7875198818897635
21
-9.9526839763779531
0
LINE
8
BLACK
6
CONTINUOUS
10
2.7875198818897635
20
-9.9526839763779531
11
2.7950189370078737
21
-9.948934448818898
0
LINE
8
BLACK
6
CONTINUOUS
10
2.7950189370078737
20
-9.948934448818898
11
2.8137666141732285
21
-9.948934448818898
0
LINE
8
BLACK
6
CONTINUOUS
10
2.8137666141732285
20
-9.948934448818898
11
2.8212656692913387
21
-9.9451849212598429
0
LINE
8
BLACK
6
CONTINUOUS
10
2.8587609842519686
20
-9.9264372440944886
11
2.8587609842519686
21
-10.0051774015748034
0
LINE
8
BLACK
6
CONTINUOUS
10
2.8587609842519686
20
-9.9301867716535437
11
2.8662600393700788
21
-9.9264372440944886
0
LINE
8
BLACK
6
CONTINUOUS
10
2.8662600393700788
20
-9.9264372440944886
11
2.881258188976378
21
-9.9264372440944886
0
LINE
8
BLACK
6
CONTINUOUS
10
2.881258188976378
20
-9.9264372440944886
11
2.8887572440944882
21
-9.9301867716535437
0
LINE
8
BLACK
6
CONTINUOUS
10
2.8887572440944882
20
-9.9301867716535437
11
2.8925067716535433
21
-9.9339362992125988
0
LINE
8
BLACK
6
CONTINUOUS
10
2.8925067716535433
20
-9.9339362992125988
11
2.8962562992125984
21
-9.9414353937007878
0
LINE
8
BLACK
6
CONTINUOUS
10
2.8962562992125984
20
-9.9414353937007878
11
2.8962562992125984
21
-9.9639325590551184
0
LINE
8
BLACK
6
CONTINUOUS
10
2.8962562992125984
20
-9.9639325590551184
11
2.8925067716535433
21
-9.9714316141732287
0
LINE
8
BLACK
6
CONTINUOUS
10
2.8925067716535433
20
-9.9714316141732287
11
2.8887572440944882
21
-9.9751811811023625
0
LINE
8
BLACK
6
CONTINUOUS
10
2.8887572440944882
20
-9.9751811811023625
11
2.881258188976378
21
-9.9789307086614176
0
LINE
8
BLACK
6
CONTINUOUS
10
2.881258188976378
20
-9.9789307086614176
11
2.8662600393700788
21
-9.9789307086614176
0
LINE
8
BLACK
6
CONTINUOUS
10
2.8662600393700788
20
-9.9789307086614176
11
2.8587609842519686
21
-9.9751811811023625
0
LINE
8
BLACK
6
CONTINUOUS
10
2.9300020866141732
20
-9.9714316141732287
11
2.9337516141732283
21
-9.9751811811023625
0
LINE
8
BLACK
6
CONTINUOUS
10
2.9337516141732283
20
-9.9751811811023625
11
2.9300020866141732
21
-9.9789307086614176
0
LINE
8
BLACK
6
CONTINUOUS
10
2.9300020866141732
20
-9.9789307086614176
11
2.9262525590551181
21
-9.9751811811023625
0
LINE
8
BLACK
6
CONTINUOUS
10
2.9262525590551181
20
-9.9751811811023625
11
2.9300020866141732
21
-9.9714316141732287
0
LINE
8
BLACK
6
CONTINUOUS
10
2.9300020866141732
20
-9.9714316141732287
11
2.9300020866141732
21
-9.9789307086614176
0
LINE
8
BLACK
6
CONTINUOUS
10
2.9300020866141732
20
-9.9301867716535437
11
2.9337516141732283
21
-9.9339362992125988
0
LINE
8
BLACK
6
CONTINUOUS
10
2.9337516141732283
20
-9.9339362992125988
11
2.9300020866141732
21
-9.9376858661417327
0
LINE
8
BLACK
6
CONTINUOUS
10
2.9300020866141732
20
-9.9376858661417327
11
2.9262525590551181
21
-9.9339362992125988
0
LINE
8
BLACK
6
CONTINUOUS
10
2.9262525590551181
20
-9.9339362992125988
11
2.9300020866141732
21
-9.9301867716535437
0
LINE
8
BLACK
6
CONTINUOUS
10
2.9300020866141732
20
-9.9301867716535437
11
2.9300020866141732
21
-9.9376858661417327
0
LINE
8
BLACK
6
CONTINUOUS
10
2.208661377952756
20
-10.0688977165354334
11
2.2874015354330708
21
-10.1476378740157482
0
LINE
8
BLACK
6
CONTINUOUS
10
2.2874015354330708
20
-10.0688977165354334
11
2.208661377952756
21
-10.1476378740157482
0
LINE
8
BLACK
6
CONTINUOUS
10
2.4275648818897637
20
-10.0655448818897639
11
2.3900695669291339
21
-10.0655448818897639
0
LINE
8
BLACK
6
CONTINUOUS
10
2.3900695669291339
20
-10.0655448818897639
11
2.3863200393700787
21
-10.1030401968503938
0
LINE
8
BLACK
6
CONTINUOUS
10
2.3863200393700787
20
-10.1030401968503938
11
2.3900695669291339
21
-10.0992906299212599
0
LINE
8
BLACK
6
CONTINUOUS
10
2.3900695669291339
20
-10.0992906299212599
11
2.3975686220472441
21
-10.0955411023622048
0
LINE
8
BLACK
6
CONTINUOUS
10
2.3975686220472441
20
-10.0955411023622048
11
2.4163162992125984
21
-10.0955411023622048
0
LINE
8
BLACK
6
CONTINUOUS
10
2.4163162992125984
20
-10.0955411023622048
11
2.4238153543307086
21
-10.0992906299212599
0
LINE
8
BLACK
6
CONTINUOUS
10
2.4238153543307086
20
-10.0992906299212599
11
2.4275648818897637
21
-10.1030401968503938
0
LINE
8
BLACK
6
CONTINUOUS
10
2.4275648818897637
20
-10.1030401968503938
11
2.4313144094488188
21
-10.110539251968504
0
LINE
8
BLACK
6
CONTINUOUS
10
2.4313144094488188
20
-10.110539251968504
11
2.4313144094488188
21
-10.1292868897637796
0
LINE
8
BLACK
6
CONTINUOUS
10
2.4313144094488188
20
-10.1292868897637796
11
2.4275648818897637
21
-10.1367859448818898
0
LINE
8
BLACK
6
CONTINUOUS
10
2.4275648818897637
20
-10.1367859448818898
11
2.4238153543307086
21
-10.1405355118110236
0
LINE
8
BLACK
6
CONTINUOUS
10
2.4238153543307086
20
-10.1405355118110236
11
2.4163162992125984
21
-10.1442850393700787
0
LINE
8
BLACK
6
CONTINUOUS
10
2.4163162992125984
20
-10.1442850393700787
11
2.3975686220472441
21
-10.1442850393700787
0
LINE
8
BLACK
6
CONTINUOUS
10
2.3975686220472441
20
-10.1442850393700787
11
2.3900695669291339
21
-10.1405355118110236
0
LINE
8
BLACK
6
CONTINUOUS
10
2.3900695669291339
20
-10.1405355118110236
11
2.3863200393700787
21
-10.1367859448818898
0
LINE
8
BLACK
6
CONTINUOUS
10
2.4650601968503936
20
-10.1367859448818898
11
2.4688097244094487
21
-10.1405355118110236
0
LINE
8
BLACK
6
CONTINUOUS
10
2.4688097244094487
20
-10.1405355118110236
11
2.4650601968503936
21
-10.1442850393700787
0
LINE
8
BLACK
6
CONTINUOUS
10
2.4650601968503936
20
-10.1442850393700787
11
2.4613106692913385
21
-10.1405355118110236
0
LINE
8
BLACK
6
CONTINUOUS
10
2.4613106692913385
20
-10.1405355118110236
11
2.4650601968503936
21
-10.1367859448818898
0
LINE
8
BLACK
6
CONTINUOUS
10
2.4650601968503936
20
-10.1367859448818898
11
2.4650601968503936
21
-10.1442850393700787
0
LINE
8
BLACK
6
CONTINUOUS
10
2.4950564566929132
20
-10.0655448818897639
11
2.5438003543307084
21
-10.0655448818897639
0
LINE
8
BLACK
6
CONTINUOUS
10
2.5438003543307084
20
-10.0655448818897639
11
2.5175536220472439
21
-10.0955411023622048
0
LINE
8
BLACK
6
CONTINUOUS
10
2.5175536220472439
20
-10.0955411023622048
11
2.5288022440944879
21
-10.0955411023622048
0
LINE
8
BLACK
6
CONTINUOUS
10
2.5288022440944879
20
-10.0955411023622048
11
2.5363012992125982
21
-10.0992906299212599
0
LINE
8
BLACK
6
CONTINUOUS
10
2.5363012992125982
20
-10.0992906299212599
11
2.5400508267716533
21
-10.1030401968503938
0
LINE
8
BLACK
6
CONTINUOUS
10
2.5400508267716533
20
-10.1030401968503938
11
2.5438003543307084
21
-10.110539251968504
0
LINE
8
BLACK
6
CONTINUOUS
10
2.5438003543307084
20
-10.110539251968504
11
2.5438003543307084
21
-10.1292868897637796
0
LINE
8
BLACK
6
CONTINUOUS
10
2.5438003543307084
20
-10.1292868897637796
11
2.5400508267716533
21
-10.1367859448818898
0
LINE
8
BLACK
6
CONTINUOUS
10
2.5400508267716533
20
-10.1367859448818898
11
2.5363012992125982
21
-10.1405355118110236
0
LINE
8
BLACK
6
CONTINUOUS
10
2.5363012992125982
20
-10.1405355118110236
11
2.5288022440944879
21
-10.1442850393700787
0
LINE
8
BLACK
6
CONTINUOUS
10
2.5288022440944879
20
-10.1442850393700787
11
2.5063050393700785
21
-10.1442850393700787
0
LINE
8
BLACK
6
CONTINUOUS
10
2.5063050393700785
20
-10.1442850393700787
11
2.4988059842519683
21
-10.1405355118110236
0
LINE
8
BLACK
6
CONTINUOUS
10
2.4988059842519683
20
-10.1405355118110236
11
2.4950564566929132
21
-10.1367859448818898
0
LINE
8
BLACK
6
CONTINUOUS
10
2.592544251968504
20
-10.0655448818897639
11
2.600043346456693
21
-10.0655448818897639
0
LINE
8
BLACK
6
CONTINUOUS
10
2.600043346456693
20
-10.0655448818897639
11
2.6075424015748032
21
-10.069294409448819
0
LINE
8
BLACK
6
CONTINUOUS
10
2.6075424015748032
20
-10.069294409448819
11
2.6112919291338583
21
-10.0730439370078741
0
LINE
8
BLACK
6
CONTINUOUS
10
2.6112919291338583
20
-10.0730439370078741
11
2.6150414566929134
21
-10.0805429921259844
0
LINE
8
BLACK
6
CONTINUOUS
10
2.6150414566929134
20
-10.0805429921259844
11
2.6187909842519685
21
-10.0955411023622048
0
LINE
8
BLACK
6
CONTINUOUS
10
2.6187909842519685
20
-10.0955411023622048
11
2.6187909842519685
21
-10.1142887795275591
0
LINE
8
BLACK
6
CONTINUOUS
10
2.6187909842519685
20
-10.1142887795275591
11
2.6150414566929134
21
-10.1292868897637796
0
LINE
8
BLACK
6
CONTINUOUS
10
2.6150414566929134
20
-10.1292868897637796
11
2.6112919291338583
21
-10.1367859448818898
0
LINE
8
BLACK
6
CONTINUOUS
10
2.6112919291338583
20
-10.1367859448818898
11
2.6075424015748032
21
-10.1405355118110236
0
LINE
8
BLACK
6
CONTINUOUS
10
2.6075424015748032
20
-10.1405355118110236
11
2.600043346456693
21
-10.1442850393700787
0
LINE
8
BLACK
6
CONTINUOUS
10
2.600043346456693
20
-10.1442850393700787
11
2.592544251968504
21
-10.1442850393700787
0
LINE
8
BLACK
6
CONTINUOUS
10
2.592544251968504
20
-10.1442850393700787
11
2.5850451968503938
21
-10.1405355118110236
0
LINE
8
BLACK
6
CONTINUOUS
10
2.5850451968503938
20
-10.1405355118110236
11
2.5812956692913387
21
-10.1367859448818898
0
LINE
8
BLACK
6
CONTINUOUS
10
2.5812956692913387
20
-10.1367859448818898
11
2.5775461417322836
21
-10.1292868897637796
0
LINE
8
BLACK
6
CONTINUOUS
10
2.5775461417322836
20
-10.1292868897637796
11
2.5737966141732285
21
-10.1142887795275591
0
LINE
8
BLACK
6
CONTINUOUS
10
2.5737966141732285
20
-10.1142887795275591
11
2.5737966141732285
21
-10.0955411023622048
0
LINE
8
BLACK
6
CONTINUOUS
10
2.5737966141732285
20
-10.0955411023622048
11
2.5775461417322836
21
-10.0805429921259844
0
LINE
8
BLACK
6
CONTINUOUS
10
2.5775461417322836
20
-10.0805429921259844
11
2.5812956692913387
21
-10.0730439370078741
0
LINE
8
BLACK
6
CONTINUOUS
10
2.5812956692913387
20
-10.0730439370078741
11
2.5850451968503938
21
-10.069294409448819
0
LINE
8
BLACK
6
CONTINUOUS
10
2.5850451968503938
20
-10.069294409448819
11
2.592544251968504
21
-10.0655448818897639
0
LINE
8
BLACK
6
CONTINUOUS
10
2.6675348818897637
20
-10.0655448818897639
11
2.6750339763779527
21
-10.0655448818897639
0
LINE
8
BLACK
6
CONTINUOUS
10
2.6750339763779527
20
-10.0655448818897639
11
2.6825330314960629
21
-10.069294409448819
0
LINE
8
BLACK
6
CONTINUOUS
10
2.6825330314960629
20
-10.069294409448819
11
2.686282559055118
21
-10.0730439370078741
0
LINE
8
BLACK
6
CONTINUOUS
10
2.686282559055118
20
-10.0730439370078741
11
2.6900320866141731
21
-10.0805429921259844
0
LINE
8
BLACK
6
CONTINUOUS
10
2.6900320866141731
20
-10.0805429921259844
11
2.6937816141732283
21
-10.0955411023622048
0
LINE
8
BLACK
6
CONTINUOUS
10
2.6937816141732283
20
-10.0955411023622048
11
2.6937816141732283
21
-10.1142887795275591
0
LINE
8
BLACK
6
CONTINUOUS
10
2.6937816141732283
20
-10.1142887795275591
11
2.6900320866141731
21
-10.1292868897637796
0
LINE
8
BLACK
6
CONTINUOUS
10
2.6900320866141731
20
-10.1292868897637796
11
2.686282559055118
21
-10.1367859448818898
0
LINE
8
BLACK
6
CONTINUOUS
10
2.686282559055118
20
-10.1367859448818898
11
2.6825330314960629
21
-10.1405355118110236
0
LINE
8
BLACK
6
CONTINUOUS
10
2.6825330314960629
20
-10.1405355118110236
11
2.6750339763779527
21
-10.1442850393700787
0
LINE
8
BLACK
6
CONTINUOUS
10
2.6750339763779527
20
-10.1442850393700787
11
2.6675348818897637
21
-10.1442850393700787
0
LINE
8
BLACK
6
CONTINUOUS
10
2.6675348818897637
20
-10.1442850393700787
11
2.6600358267716535
21
-10.1405355118110236
0
LINE
8
BLACK
6
CONTINUOUS
10
2.6600358267716535
20
-10.1405355118110236
11
2.6562862992125984
21
-10.1367859448818898
0
LINE
8
BLACK
6
CONTINUOUS
10
2.6562862992125984
20
-10.1367859448818898
11
2.6525367716535433
21
-10.1292868897637796
0
LINE
8
BLACK
6
CONTINUOUS
10
2.6525367716535433
20
-10.1292868897637796
11
2.6487872440944882
21
-10.1142887795275591
0
LINE
8
BLACK
6
CONTINUOUS
10
2.6487872440944882
20
-10.1142887795275591
11
2.6487872440944882
21
-10.0955411023622048
0
LINE
8
BLACK
6
CONTINUOUS
10
2.6487872440944882
20
-10.0955411023622048
11
2.6525367716535433
21
-10.0805429921259844
0
LINE
8
BLACK
6
CONTINUOUS
10
2.6525367716535433
20
-10.0805429921259844
11
2.6562862992125984
21
-10.0730439370078741
0
LINE
8
BLACK
6
CONTINUOUS
10
2.6562862992125984
20
-10.0730439370078741
11
2.6600358267716535
21
-10.069294409448819
0
LINE
8
BLACK
6
CONTINUOUS
10
2.6600358267716535
20
-10.069294409448819
11
2.6675348818897637
21
-10.0655448818897639
0
LINE
8
BLACK
6
CONTINUOUS
10
2.727527401574803
20
-10.1442850393700787
11
2.727527401574803
21
-10.0917915748031497
0
LINE
8
BLACK
6
CONTINUOUS
10
2.727527401574803
20
-10.0992906299212599
11
2.7312769291338581
21
-10.0955411023622048
0
LINE
8
BLACK
6
CONTINUOUS
10
2.7312769291338581
20
-10.0955411023622048
11
2.7387759842519683
21
-10.0917915748031497
0
LINE
8
BLACK
6
CONTINUOUS
10
2.7387759842519683
20
-10.0917915748031497
11
2.7500246062992124
21
-10.0917915748031497
0
LINE
8
BLACK
6
CONTINUOUS
10
2.7500246062992124
20
-10.0917915748031497
11
2.7575236614173226
21
-10.0955411023622048
0
LINE
8
BLACK
6
CONTINUOUS
10
2.7575236614173226
20
-10.0955411023622048
11
2.7612731889763777
21
-10.1030401968503938
0
LINE
8
BLACK
6
CONTINUOUS
10
2.7612731889763777
20
-10.1030401968503938
11
2.7612731889763777
21
-10.1442850393700787
0
LINE
8
BLACK
6
CONTINUOUS
10
2.7612731889763777
20
-10.1030401968503938
11
2.7650227165354329
21
-10.0955411023622048
0
LINE
8
BLACK
6
CONTINUOUS
10
2.7650227165354329
20
-10.0955411023622048
11
2.7725217716535431
21
-10.0917915748031497
0
LINE
8
BLACK
6
CONTINUOUS
10
2.7725217716535431
20
-10.0917915748031497
11
2.7837703543307084
21
-10.0917915748031497
0
LINE
8
BLACK
6
CONTINUOUS
10
2.7837703543307084
20
-10.0917915748031497
11
2.7912694488188974
21
-10.0955411023622048
0
LINE
8
BLACK
6
CONTINUOUS
10
2.7912694488188974
20
-10.0955411023622048
11
2.7950189763779525
21
-10.1030401968503938
0
LINE
8
BLACK
6
CONTINUOUS
10
2.7950189763779525
20
-10.1030401968503938
11
2.7950189763779525
21
-10.1442850393700787
0
LINE
8
BLACK
6
CONTINUOUS
10
2.8325142913385828
20
-10.1442850393700787
11
2.8325142913385828
21
-10.0917915748031497
0
LINE
8
BLACK
6
CONTINUOUS
10
2.8325142913385828
20
-10.0992906299212599
11
2.8362638188976379
21
-10.0955411023622048
0
LINE
8
BLACK
6
CONTINUOUS
10
2.8362638188976379
20
-10.0955411023622048
11
2.8437628740157481
21
-10.0917915748031497
0
LINE
8
BLACK
6
CONTINUOUS
10
2.8437628740157481
20
-10.0917915748031497
11
2.8550114960629922
21
-10.0917915748031497
0
LINE
8
BLACK
6
CONTINUOUS
10
2.8550114960629922
20
-10.0917915748031497
11
2.8625105511811024
21
-10.0955411023622048
0
LINE
8
BLACK
6
CONTINUOUS
10
2.8625105511811024
20
-10.0955411023622048
11
2.8662600787401575
21
-10.1030401968503938
0
LINE
8
BLACK
6
CONTINUOUS
10
2.8662600787401575
20
-10.1030401968503938
11
2.8662600787401575
21
-10.1442850393700787
0
LINE
8
BLACK
6
CONTINUOUS
10
2.8662600787401575
20
-10.1030401968503938
11
2.8700096062992126
21
-10.0955411023622048
0
LINE
8
BLACK
6
CONTINUOUS
10
2.8700096062992126
20
-10.0955411023622048
11
2.8775086614173229
21
-10.0917915748031497
0
LINE
8
BLACK
6
CONTINUOUS
10
2.8775086614173229
20
-10.0917915748031497
11
2.8887572440944882
21
-10.0917915748031497
0
LINE
8
BLACK
6
CONTINUOUS
10
2.8887572440944882
20
-10.0917915748031497
11
2.8962563385826772
21
-10.0955411023622048
0
LINE
8
BLACK
6
CONTINUOUS
10
2.8962563385826772
20
-10.0955411023622048
11
2.9000058661417323
21
-10.1030401968503938
0
LINE
8
BLACK
6
CONTINUOUS
10
2.9000058661417323
20
-10.1030401968503938
11
2.9000058661417323
21
-10.1442850393700787
0
LINE
8
BLACK
6
CONTINUOUS
10
3.0537366535433068
20
-10.0617953543307088
11
2.9862451181102361
21
-10.1630326771653543
0
LINE
8
BLACK
6
CONTINUOUS
10
3.1549740157480315
20
-10.0655448818897639
11
3.1624731102362205
21
-10.0655448818897639
0
LINE
8
BLACK
6
CONTINUOUS
10
3.1624731102362205
20
-10.0655448818897639
11
3.1699721653543307
21
-10.069294409448819
0
LINE
8
BLACK
6
CONTINUOUS
10
3.1699721653543307
20
-10.069294409448819
11
3.1737216929133858
21
-10.0730439370078741
0
LINE
8
BLACK
6
CONTINUOUS
10
3.1737216929133858
20
-10.0730439370078741
11
3.1774712204724409
21
-10.0805429921259844
0
LINE
8
BLACK
6
CONTINUOUS
10
3.1774712204724409
20
-10.0805429921259844
11
3.181220748031496
21
-10.0955411023622048
0
LINE
8
BLACK
6
CONTINUOUS
10
3.181220748031496
20
-10.0955411023622048
11
3.181220748031496
21
-10.1142887795275591
0
LINE
8
BLACK
6
CONTINUOUS
10
3.181220748031496
20
-10.1142887795275591
11
3.1774712204724409
21
-10.1292868897637796
0
LINE
8
BLACK
6
CONTINUOUS
10
3.1774712204724409
20
-10.1292868897637796
11
3.1737216929133858
21
-10.1367859448818898
0
LINE
8
BLACK
6
CONTINUOUS
10
3.1737216929133858
20
-10.1367859448818898
11
3.1699721653543307
21
-10.1405355118110236
0
LINE
8
BLACK
6
CONTINUOUS
10
3.1699721653543307
20
-10.1405355118110236
11
3.1624731102362205
21
-10.1442850393700787
0
LINE
8
BLACK
6
CONTINUOUS
10
3.1624731102362205
20
-10.1442850393700787
11
3.1549740157480315
21
-10.1442850393700787
0
LINE
8
BLACK
6
CONTINUOUS
10
3.1549740157480315
20
-10.1442850393700787
11
3.1474749606299213
21
-10.1405355118110236
0
LINE
8
BLACK
6
CONTINUOUS
10
3.1474749606299213
20
-10.1405355118110236
11
3.1437254330708662
21
-10.1367859448818898
0
LINE
8
BLACK
6
CONTINUOUS
10
3.1437254330708662
20
-10.1367859448818898
11
3.139975905511811
21
-10.1292868897637796
0
LINE
8
BLACK
6
CONTINUOUS
10
3.139975905511811
20
-10.1292868897637796
11
3.1362263779527559
21
-10.1142887795275591
0
LINE
8
BLACK
6
CONTINUOUS
10
3.1362263779527559
20
-10.1142887795275591
11
3.1362263779527559
21
-10.0955411023622048
0
LINE
8
BLACK
6
CONTINUOUS
10
3.1362263779527559
20
-10.0955411023622048
11
3.139975905511811
21
-10.0805429921259844
0
LINE
8
BLACK
6
CONTINUOUS
10
3.139975905511811
20
-10.0805429921259844
11
3.1437254330708662
21
-10.0730439370078741
0
LINE
8
BLACK
6
CONTINUOUS
10
3.1437254330708662
20
-10.0730439370078741
11
3.1474749606299213
21
-10.069294409448819
0
LINE
8
BLACK
6
CONTINUOUS
10
3.1474749606299213
20
-10.069294409448819
11
3.1549740157480315
21
-10.0655448818897639
0
LINE
8
BLACK
6
CONTINUOUS
10
3.2149665354330708
20
-10.1367859448818898
11
3.2187160629921259
21
-10.1405355118110236
0
LINE
8
BLACK
6
CONTINUOUS
10
3.2187160629921259
20
-10.1405355118110236
11
3.2149665354330708
21
-10.1442850393700787
0
LINE
8
BLACK
6
CONTINUOUS
10
3.2149665354330708
20
-10.1442850393700787
11
3.2112170078740156
21
-10.1405355118110236
0
LINE
8
BLACK
6
CONTINUOUS
10
3.2112170078740156
20
-10.1405355118110236
11
3.2149665354330708
21
-10.1367859448818898
0
LINE
8
BLACK
6
CONTINUOUS
10
3.2149665354330708
20
-10.1367859448818898
11
3.2149665354330708
21
-10.1442850393700787
0
LINE
8
BLACK
6
CONTINUOUS
10
3.2487123228346455
20
-10.0730439370078741
11
3.2524618503937006
21
-10.069294409448819
0
LINE
8
BLACK
6
CONTINUOUS
10
3.2524618503937006
20
-10.069294409448819
11
3.2599609055118108
21
-10.0655448818897639
0
LINE
8
BLACK
6
CONTINUOUS
10
3.2599609055118108
20
-10.0655448818897639
11
3.2787085826771651
21
-10.0655448818897639
0
LINE
8
BLACK
6
CONTINUOUS
10
3.2787085826771651
20
-10.0655448818897639
11
3.2862076377952754
21
-10.069294409448819
0
LINE
8
BLACK
6
CONTINUOUS
10
3.2862076377952754
20
-10.069294409448819
11
3.2899571653543305
21
-10.0730439370078741
0
LINE
8
BLACK
6
CONTINUOUS
10
3.2899571653543305
20
-10.0730439370078741
11
3.2937066929133856
21
-10.0805429921259844
0
LINE
8
BLACK
6
CONTINUOUS
10
3.2937066929133856
20
-10.0805429921259844
11
3.2937066929133856
21
-10.0880420472440946
0
LINE
8
BLACK
6
CONTINUOUS
10
3.2937066929133856
20
-10.0880420472440946
11
3.2899571653543305
21
-10.0992906299212599
0
LINE
8
BLACK
6
CONTINUOUS
10
3.2899571653543305
20
-10.0992906299212599
11
3.2449627952755904
21
-10.1442850393700787
0
LINE
8
BLACK
6
CONTINUOUS
10
3.2449627952755904
20
-10.1442850393700787
11
3.2937066929133856
21
-10.1442850393700787
0
LINE
8
BLACK
6
CONTINUOUS
10
3.3424505905511812
20
-10.0655448818897639
11
3.3499496850393702
21
-10.0655448818897639
0
LINE
8
BLACK
6
CONTINUOUS
10
3.3499496850393702
20
-10.0655448818897639
11
3.3574487401574804
21
-10.069294409448819
0
LINE
8
BLACK
6
CONTINUOUS
10
3.3574487401574804
20
-10.069294409448819
11
3.3611982677165355
21
-10.0730439370078741
0
LINE
8
BLACK
6
CONTINUOUS
10
3.3611982677165355
20
-10.0730439370078741
11
3.3649477952755906
21
-10.0805429921259844
0
LINE
8
BLACK
6
CONTINUOUS
10
3.3649477952755906
20
-10.0805429921259844
11
3.3686973228346457
21
-10.0955411023622048
0
LINE
8
BLACK
6
CONTINUOUS
10
3.3686973228346457
20
-10.0955411023622048
11
3.3686973228346457
21
-10.1142887795275591
0
LINE
8
BLACK
6
CONTINUOUS
10
3.3686973228346457
20
-10.1142887795275591
11
3.3649477952755906
21
-10.1292868897637796
0
LINE
8
BLACK
6
CONTINUOUS
10
3.3649477952755906
20
-10.1292868897637796
11
3.3611982677165355
21
-10.1367859448818898
0
LINE
8
BLACK
6
CONTINUOUS
10
3.3611982677165355
20
-10.1367859448818898
11
3.3574487401574804
21
-10.1405355118110236
0
LINE
8
BLACK
6
CONTINUOUS
10
3.3574487401574804
20
-10.1405355118110236
11
3.3499496850393702
21
-10.1442850393700787
0
LINE
8
BLACK
6
CONTINUOUS
10
3.3499496850393702
20
-10.1442850393700787
11
3.3424505905511812
21
-10.1442850393700787
0
LINE
8
BLACK
6
CONTINUOUS
10
3.3424505905511812
20
-10.1442850393700787
11
3.334951535433071
21
-10.1405355118110236
0
LINE
8
BLACK
6
CONTINUOUS
10
3.334951535433071
20
-10.1405355118110236
11
3.3312020078740159
21
-10.1367859448818898
0
LINE
8
BLACK
6
CONTINUOUS
10
3.3312020078740159
20
-10.1367859448818898
11
3.3274524803149608
21
-10.1292868897637796
0
LINE
8
BLACK
6
CONTINUOUS
10
3.3274524803149608
20
-10.1292868897637796
11
3.3237029527559052
21
-10.1142887795275591
0
LINE
8
BLACK
6
CONTINUOUS
10
3.3237029527559052
20
-10.1142887795275591
11
3.3237029527559052
21
-10.0955411023622048
0
LINE
8
BLACK
6
CONTINUOUS
10
3.3237029527559052
20
-10.0955411023622048
11
3.3274524803149608
21
-10.0805429921259844
0
LINE
8
BLACK
6
CONTINUOUS
10
3.3274524803149608
20
-10.0805429921259844
11
3.3312020078740159
21
-10.0730439370078741
0
LINE
8
BLACK
6
CONTINUOUS
10
3.3312020078740159
20
-10.0730439370078741
11
3.334951535433071
21
-10.069294409448819
0
LINE
8
BLACK
6
CONTINUOUS
10
3.334951535433071
20
-10.069294409448819
11
3.3424505905511812
21
-10.0655448818897639
0
LINE
8
BLACK
6
CONTINUOUS
10
3.4136916929133858
20
-10.0992906299212599
11
3.4061926377952756
21
-10.0955411023622048
0
LINE
8
BLACK
6
CONTINUOUS
10
3.4061926377952756
20
-10.0955411023622048
11
3.4024431102362205
21
-10.0917915748031497
0
LINE
8
BLACK
6
CONTINUOUS
10
3.4024431102362205
20
-10.0917915748031497
11
3.3986935826771654
21
-10.0842925196850395
0
LINE
8
BLACK
6
CONTINUOUS
10
3.3986935826771654
20
-10.0842925196850395
11
3.3986935826771654
21
-10.0805429921259844
0
LINE
8
BLACK
6
CONTINUOUS
10
3.3986935826771654
20
-10.0805429921259844
11
3.4024431102362205
21
-10.0730439370078741
0
LINE
8
BLACK
6
CONTINUOUS
10
3.4024431102362205
20
-10.0730439370078741
11
3.4061926377952756
21
-10.069294409448819
0
LINE
8
BLACK
6
CONTINUOUS
10
3.4061926377952756
20
-10.069294409448819
11
3.4136916929133858
21
-10.0655448818897639
0
LINE
8
BLACK
6
CONTINUOUS
10
3.4136916929133858
20
-10.0655448818897639
11
3.428689842519685
21
-10.0655448818897639
0
LINE
8
BLACK
6
CONTINUOUS
10
3.428689842519685
20
-10.0655448818897639
11
3.4361888976377952
21
-10.069294409448819
0
LINE
8
BLACK
6
CONTINUOUS
10
3.4361888976377952
20
-10.069294409448819
11
3.4399384251968503
21
-10.0730439370078741
0
LINE
8
BLACK
6
CONTINUOUS
10
3.4399384251968503
20
-10.0730439370078741
11
3.4436879527559054
21
-10.0805429921259844
0
LINE
8
BLACK
6
CONTINUOUS
10
3.4436879527559054
20
-10.0805429921259844
11
3.4436879527559054
21
-10.0842925196850395
0
LINE
8
BLACK
6
CONTINUOUS
10
3.4436879527559054
20
-10.0842925196850395
11
3.4399384251968503
21
-10.0917915748031497
0
LINE
8
BLACK
6
CONTINUOUS
10
3.4399384251968503
20
-10.0917915748031497
11
3.4361888976377952
21
-10.0955411023622048
0
LINE
8
BLACK
6
CONTINUOUS
10
3.4361888976377952
20
-10.0955411023622048
11
3.428689842519685
21
-10.0992906299212599
0
LINE
8
BLACK
6
CONTINUOUS
10
3.428689842519685
20
-10.0992906299212599
11
3.4136916929133858
21
-10.0992906299212599
0
LINE
8
BLACK
6
CONTINUOUS
10
3.4136916929133858
20
-10.0992906299212599
11
3.4061926377952756
21
-10.1030401968503938
0
LINE
8
BLACK
6
CONTINUOUS
10
3.4061926377952756
20
-10.1030401968503938
11
3.4024431102362205
21
-10.1067897244094489
0
LINE
8
BLACK
6
CONTINUOUS
10
3.4024431102362205
20
-10.1067897244094489
11
3.3986935826771654
21
-10.1142887795275591
0
LINE
8
BLACK
6
CONTINUOUS
10
3.3986935826771654
20
-10.1142887795275591
11
3.3986935826771654
21
-10.1292868897637796
0
LINE
8
BLACK
6
CONTINUOUS
10
3.3986935826771654
20
-10.1292868897637796
11
3.4024431102362205
21
-10.1367859448818898
0
LINE
8
BLACK
6
CONTINUOUS
10
3.4024431102362205
20
-10.1367859448818898
11
3.4061926377952756
21
-10.1405355118110236
0
LINE
8
BLACK
6
CONTINUOUS
10
3.4061926377952756
20
-10.1405355118110236
11
3.4136916929133858
21
-10.1442850393700787
0
LINE
8
BLACK
6
CONTINUOUS
10
3.4136916929133858
20
-10.1442850393700787
11
3.428689842519685
21
-10.1442850393700787
0
LINE
8
BLACK
6
CONTINUOUS
10
3.428689842519685
20
-10.1442850393700787
11
3.4361888976377952
21
-10.1405355118110236
0
LINE
8
BLACK
6
CONTINUOUS
10
3.4361888976377952
20
-10.1405355118110236
11
3.4399384251968503
21
-10.1367859448818898
0
LINE
8
BLACK
6
CONTINUOUS
10
3.4399384251968503
20
-10.1367859448818898
11
3.4436879527559054
21
-10.1292868897637796
0
LINE
8
BLACK
6
CONTINUOUS
10
3.4436879527559054
20
-10.1292868897637796
11
3.4436879527559054
21
-10.1142887795275591
0
LINE
8
BLACK
6
CONTINUOUS
10
3.4436879527559054
20
-10.1142887795275591
11
3.4399384251968503
21
-10.1067897244094489
0
LINE
8
BLACK
6
CONTINUOUS
10
3.4399384251968503
20
-10.1067897244094489
11
3.4361888976377952
21
-10.1030401968503938
0
LINE
8
BLACK
6
CONTINUOUS
10
3.4361888976377952
20
-10.1030401968503938
11
3.428689842519685
21
-10.0992906299212599
0
LINE
8
BLACK
6
CONTINUOUS
10
3.46993468503937
20
-10.0655448818897639
11
3.5224281102362203
21
-10.0655448818897639
0
LINE
8
BLACK
6
CONTINUOUS
10
3.5224281102362203
20
-10.0655448818897639
11
3.4886823228346455
21
-10.1442850393700787
0
LINE
8
BLACK
6
CONTINUOUS
10
3.5486748425196848
20
-10.0655448818897639
11
3.5486748425196848
21
-10.0805429921259844
0
LINE
8
BLACK
6
CONTINUOUS
10
3.5786711023622044
20
-10.0655448818897639
11
3.5786711023622044
21
-10.0805429921259844
0
LINE
8
BLACK
6
CONTINUOUS
10
3.6949066141732283
20
-10.1742812598425196
11
3.6911570472440944
21
-10.1705317322834645
0
LINE
8
BLACK
6
CONTINUOUS
10
3.6911570472440944
20
-10.1705317322834645
11
3.6836579921259842
21
-10.1592831496062992
0
LINE
8
BLACK
6
CONTINUOUS
10
3.6836579921259842
20
-10.1592831496062992
11
3.6799084645669291
21
-10.151784094488189
0
LINE
8
BLACK
6
CONTINUOUS
10
3.6799084645669291
20
-10.151784094488189
11
3.676158937007874
21
-10.1405355118110236
0
LINE
8
BLACK
6
CONTINUOUS
10
3.676158937007874
20
-10.1405355118110236
11
3.6724094094488189
21
-10.1217878346456693
0
LINE
8
BLACK
6
CONTINUOUS
10
3.6724094094488189
20
-10.1217878346456693
11
3.6724094094488189
21
-10.1067897244094489
0
LINE
8
BLACK
6
CONTINUOUS
10
3.6724094094488189
20
-10.1067897244094489
11
3.676158937007874
21
-10.0880420472440946
0
LINE
8
BLACK
6
CONTINUOUS
10
3.676158937007874
20
-10.0880420472440946
11
3.6799084645669291
21
-10.0767934645669293
0
LINE
8
BLACK
6
CONTINUOUS
10
3.6799084645669291
20
-10.0767934645669293
11
3.6836579921259842
21
-10.069294409448819
0
LINE
8
BLACK
6
CONTINUOUS
10
3.6836579921259842
20
-10.069294409448819
11
3.6911570472440944
21
-10.058045787401575
0
LINE
8
BLACK
6
CONTINUOUS
10
3.6911570472440944
20
-10.058045787401575
11
3.6949066141732283
21
-10.0542962598425198
0
LINE
8
BLACK
6
CONTINUOUS
10
3.7586486220472439
20
-10.0917915748031497
11
3.7586486220472439
21
-10.1442850393700787
0
LINE
8
BLACK
6
CONTINUOUS
10
3.7399009448818896
20
-10.0617953543307088
11
3.7211533070866141
21
-10.1180383070866142
0
LINE
8
BLACK
6
CONTINUOUS
10
3.7211533070866141
20
-10.1180383070866142
11
3.7698972047244093
21
-10.1180383070866142
0
LINE
8
BLACK
6
CONTINUOUS
10
3.8598859842519686
20
-10.1442850393700787
11
3.8598859842519686
21
-10.0655448818897639
0
LINE
8
BLACK
6
CONTINUOUS
10
3.8936317716535433
20
-10.1442850393700787
11
3.8936317716535433
21
-10.1030401968503938
0
LINE
8
BLACK
6
CONTINUOUS
10
3.8936317716535433
20
-10.1030401968503938
11
3.8898822440944882
21
-10.0955411023622048
0
LINE
8
BLACK
6
CONTINUOUS
10
3.8898822440944882
20
-10.0955411023622048
11
3.882383188976378
21
-10.0917915748031497
0
LINE
8
BLACK
6
CONTINUOUS
10
3.882383188976378
20
-10.0917915748031497
11
3.8711345669291339
21
-10.0917915748031497
0
LINE
8
BLACK
6
CONTINUOUS
10
3.8711345669291339
20
-10.0917915748031497
11
3.8636355118110237
21
-10.0955411023622048
0
LINE
8
BLACK
6
CONTINUOUS
10
3.8636355118110237
20
-10.0955411023622048
11
3.8598859842519686
21
-10.0992906299212599
0
LINE
8
BLACK
6
CONTINUOUS
10
3.9423756692913385
20
-10.1442850393700787
11
3.9348766141732283
21
-10.1405355118110236
0
LINE
8
BLACK
6
CONTINUOUS
10
3.9348766141732283
20
-10.1405355118110236
11
3.9311270866141732
21
-10.1367859448818898
0
LINE
8
BLACK
6
CONTINUOUS
10
3.9311270866141732
20
-10.1367859448818898
11
3.9273775590551181
21
-10.1292868897637796
0
LINE
8
BLACK
6
CONTINUOUS
10
3.9273775590551181
20
-10.1292868897637796
11
3.9273775590551181
21
-10.1067897244094489
0
LINE
8
BLACK
6
CONTINUOUS
10
3.9273775590551181
20
-10.1067897244094489
11
3.9311270866141732
21
-10.0992906299212599
0
LINE
8
BLACK
6
CONTINUOUS
10
3.9311270866141732
20
-10.0992906299212599
11
3.9348766141732283
21
-10.0955411023622048
0
LINE
8
BLACK
6
CONTINUOUS
10
3.9348766141732283
20
-10.0955411023622048
11
3.9423756692913385
21
-10.0917915748031497
0
LINE
8
BLACK
6
CONTINUOUS
10
3.9423756692913385
20
-10.0917915748031497
11
3.9536242913385826
21
-10.0917915748031497
0
LINE
8
BLACK
6
CONTINUOUS
10
3.9536242913385826
20
-10.0917915748031497
11
3.9611233464566928
21
-10.0955411023622048
0
LINE
8
BLACK
6
CONTINUOUS
10
3.9611233464566928
20
-10.0955411023622048
11
3.9648728740157479
21
-10.0992906299212599
0
LINE
8
BLACK
6
CONTINUOUS
10
3.9648728740157479
20
-10.0992906299212599
11
3.9686224015748031
21
-10.1067897244094489
0
LINE
8
BLACK
6
CONTINUOUS
10
3.9686224015748031
20
-10.1067897244094489
11
3.9686224015748031
21
-10.1292868897637796
0
LINE
8
BLACK
6
CONTINUOUS
10
3.9686224015748031
20
-10.1292868897637796
11
3.9648728740157479
21
-10.1367859448818898
0
LINE
8
BLACK
6
CONTINUOUS
10
3.9648728740157479
20
-10.1367859448818898
11
3.9611233464566928
21
-10.1405355118110236
0
LINE
8
BLACK
6
CONTINUOUS
10
3.9611233464566928
20
-10.1405355118110236
11
3.9536242913385826
21
-10.1442850393700787
0
LINE
8
BLACK
6
CONTINUOUS
10
3.9536242913385826
20
-10.1442850393700787
11
3.9423756692913385
21
-10.1442850393700787
0
LINE
8
BLACK
6
CONTINUOUS
10
4.0136167716535436
20
-10.1442850393700787
11
4.0061177165354334
21
-10.1405355118110236
0
LINE
8
BLACK
6
CONTINUOUS
10
4.0061177165354334
20
-10.1405355118110236
11
4.0023681889763782
21
-10.1330364173228347
0
LINE
8
BLACK
6
CONTINUOUS
10
4.0023681889763782
20
-10.1330364173228347
11
4.0023681889763782
21
-10.0655448818897639
0
LINE
8
BLACK
6
CONTINUOUS
10
4.0736092913385828
20
-10.1405355118110236
11
4.0661102362204726
21
-10.1442850393700787
0
LINE
8
BLACK
6
CONTINUOUS
10
4.0661102362204726
20
-10.1442850393700787
11
4.0511120866141734
21
-10.1442850393700787
0
LINE
8
BLACK
6
CONTINUOUS
10
4.0511120866141734
20
-10.1442850393700787
11
4.0436130314960632
21
-10.1405355118110236
0
LINE
8
BLACK
6
CONTINUOUS
10
4.0436130314960632
20
-10.1405355118110236
11
4.0398635039370081
21
-10.1330364173228347
0
LINE
8
BLACK
6
CONTINUOUS
10
4.0398635039370081
20
-10.1330364173228347
11
4.0398635039370081
21
-10.1030401968503938
0
LINE
8
BLACK
6
CONTINUOUS
10
4.0398635039370081
20
-10.1030401968503938
11
4.0436130314960632
21
-10.0955411023622048
0
LINE
8
BLACK
6
CONTINUOUS
10
4.0436130314960632
20
-10.0955411023622048
11
4.0511120866141734
21
-10.0917915748031497
0
LINE
8
BLACK
6
CONTINUOUS
10
4.0511120866141734
20
-10.0917915748031497
11
4.0661102362204726
21
-10.0917915748031497
0
LINE
8
BLACK
6
CONTINUOUS
10
4.0661102362204726
20
-10.0917915748031497
11
4.0736092913385828
21
-10.0955411023622048
0
LINE
8
BLACK
6
CONTINUOUS
10
4.0736092913385828
20
-10.0955411023622048
11
4.077358818897638
21
-10.1030401968503938
0
LINE
8
BLACK
6
CONTINUOUS
10
4.077358818897638
20
-10.1030401968503938
11
4.077358818897638
21
-10.110539251968504
0
LINE
8
BLACK
6
CONTINUOUS
10
4.077358818897638
20
-10.110539251968504
11
4.0398635039370081
21
-10.1180383070866142
0
LINE
8
BLACK
6
CONTINUOUS
10
4.1073550787401576
20
-10.1405355118110236
11
4.1148541338582678
21
-10.1442850393700787
0
LINE
8
BLACK
6
CONTINUOUS
10
4.1148541338582678
20
-10.1442850393700787
11
4.1298522440944883
21
-10.1442850393700787
0
LINE
8
BLACK
6
CONTINUOUS
10
4.1298522440944883
20
-10.1442850393700787
11
4.1373513385826772
21
-10.1405355118110236
0
LINE
8
BLACK
6
CONTINUOUS
10
4.1373513385826772
20
-10.1405355118110236
11
4.1411008661417323
21
-10.1330364173228347
0
LINE
8
BLACK
6
CONTINUOUS
10
4.1411008661417323
20
-10.1330364173228347
11
4.1411008661417323
21
-10.1292868897637796
0
LINE
8
BLACK
6
CONTINUOUS
10
4.1411008661417323
20
-10.1292868897637796
11
4.1373513385826772
21
-10.1217878346456693
0
LINE
8
BLACK
6
CONTINUOUS
10
4.1373513385826772
20
-10.1217878346456693
11
4.1298522440944883
21
-10.1180383070866142
0
LINE
8
BLACK
6
CONTINUOUS
10
4.1298522440944883
20
-10.1180383070866142
11
4.1186036614173229
21
-10.1180383070866142
0
LINE
8
BLACK
6
CONTINUOUS
10
4.1186036614173229
20
-10.1180383070866142
11
4.1111046062992127
21
-10.1142887795275591
0
LINE
8
BLACK
6
CONTINUOUS
10
4.1111046062992127
20
-10.1142887795275591
11
4.1073550787401576
21
-10.1067897244094489
0
LINE
8
BLACK
6
CONTINUOUS
10
4.1073550787401576
20
-10.1067897244094489
11
4.1073550787401576
21
-10.1030401968503938
0
LINE
8
BLACK
6
CONTINUOUS
10
4.1073550787401576
20
-10.1030401968503938
11
4.1111046062992127
21
-10.0955411023622048
0
LINE
8
BLACK
6
CONTINUOUS
10
4.1111046062992127
20
-10.0955411023622048
11
4.1186036614173229
21
-10.0917915748031497
0
LINE
8
BLACK
6
CONTINUOUS
10
4.1186036614173229
20
-10.0917915748031497
11
4.1298522440944883
21
-10.0917915748031497
0
LINE
8
BLACK
6
CONTINUOUS
10
4.1298522440944883
20
-10.0917915748031497
11
4.1373513385826772
21
-10.0955411023622048
0
LINE
8
BLACK
6
CONTINUOUS
10
4.1673475984251969
20
-10.1742812598425196
11
4.171097125984252
21
-10.1705317322834645
0
LINE
8
BLACK
6
CONTINUOUS
10
4.171097125984252
20
-10.1705317322834645
11
4.1785961811023622
21
-10.1592831496062992
0
LINE
8
BLACK
6
CONTINUOUS
10
4.1785961811023622
20
-10.1592831496062992
11
4.1823457086614173
21
-10.151784094488189
0
LINE
8
BLACK
6
CONTINUOUS
10
4.1823457086614173
20
-10.151784094488189
11
4.1860952362204724
21
-10.1405355118110236
0
LINE
8
BLACK
6
CONTINUOUS
10
4.1860952362204724
20
-10.1405355118110236
11
4.1898447637795275
21
-10.1217878346456693
0
LINE
8
BLACK
6
CONTINUOUS
10
4.1898447637795275
20
-10.1217878346456693
11
4.1898447637795275
21
-10.1067897244094489
0
LINE
8
BLACK
6
CONTINUOUS
10
4.1898447637795275
20
-10.1067897244094489
11
4.1860952362204724
21
-10.0880420472440946
0
LINE
8
BLACK
6
CONTINUOUS
10
4.1860952362204724
20
-10.0880420472440946
11
4.1823457086614173
21
-10.0767934645669293
0
LINE
8
BLACK
6
CONTINUOUS
10
4.1823457086614173
20
-10.0767934645669293
11
4.1785961811023622
21
-10.069294409448819
0
LINE
8
BLACK
6
CONTINUOUS
10
4.1785961811023622
20
-10.069294409448819
11
4.171097125984252
21
-10.058045787401575
0
LINE
8
BLACK
6
CONTINUOUS
10
4.171097125984252
20
-10.058045787401575
11
4.1673475984251969
21
-10.0542962598425198
0
LINE
8
BLACK
6
CONTINUOUS
10
4.3098298031496061
20
-10.1742812598425196
11
4.3060802362204722
21
-10.1705317322834645
0
LINE
8
BLACK
6
CONTINUOUS
10
4.3060802362204722
20
-10.1705317322834645
11
4.298581181102362
21
-10.1592831496062992
0
LINE
8
BLACK
6
CONTINUOUS
10
4.298581181102362
20
-10.1592831496062992
11
4.2948316535433069
21
-10.151784094488189
0
LINE
8
BLACK
6
CONTINUOUS
10
4.2948316535433069
20
-10.151784094488189
11
4.2910821259842518
21
-10.1405355118110236
0
LINE
8
BLACK
6
CONTINUOUS
10
4.2910821259842518
20
-10.1405355118110236
11
4.2873325984251967
21
-10.1217878346456693
0
LINE
8
BLACK
6
CONTINUOUS
10
4.2873325984251967
20
-10.1217878346456693
11
4.2873325984251967
21
-10.1067897244094489
0
LINE
8
BLACK
6
CONTINUOUS
10
4.2873325984251967
20
-10.1067897244094489
11
4.2910821259842518
21
-10.0880420472440946
0
LINE
8
BLACK
6
CONTINUOUS
10
4.2910821259842518
20
-10.0880420472440946
11
4.2948316535433069
21
-10.0767934645669293
0
LINE
8
BLACK
6
CONTINUOUS
10
4.2948316535433069
20
-10.0767934645669293
11
4.298581181102362
21
-10.069294409448819
0
LINE
8
BLACK
6
CONTINUOUS
10
4.298581181102362
20
-10.069294409448819
11
4.3060802362204722
21
-10.058045787401575
0
LINE
8
BLACK
6
CONTINUOUS
10
4.3060802362204722
20
-10.058045787401575
11
4.3098298031496061
21
-10.0542962598425198
0
LINE
8
BLACK
6
CONTINUOUS
10
4.3398260236220469
20
-10.0917915748031497
11
4.3398260236220469
21
-10.1442850393700787
0
LINE
8
BLACK
6
CONTINUOUS
10
4.3398260236220469
20
-10.0992906299212599
11
4.3435755511811021
21
-10.0955411023622048
0
LINE
8
BLACK
6
CONTINUOUS
10
4.3435755511811021
20
-10.0955411023622048
11
4.3510746062992123
21
-10.0917915748031497
0
LINE
8
BLACK
6
CONTINUOUS
10
4.3510746062992123
20
-10.0917915748031497
11
4.3623232283464564
21
-10.0917915748031497
0
LINE
8
BLACK
6
CONTINUOUS
10
4.3623232283464564
20
-10.0917915748031497
11
4.3698222834645666
21
-10.0955411023622048
0
LINE
8
BLACK
6
CONTINUOUS
10
4.3698222834645666
20
-10.0955411023622048
11
4.3735718110236217
21
-10.1030401968503938
0
LINE
8
BLACK
6
CONTINUOUS
10
4.3735718110236217
20
-10.1030401968503938
11
4.3735718110236217
21
-10.1442850393700787
0
LINE
8
BLACK
6
CONTINUOUS
10
4.4223157086614169
20
-10.1442850393700787
11
4.4148166535433067
21
-10.1405355118110236
0
LINE
8
BLACK
6
CONTINUOUS
10
4.4148166535433067
20
-10.1405355118110236
11
4.4110671259842515
21
-10.1367859448818898
0
LINE
8
BLACK
6
CONTINUOUS
10
4.4110671259842515
20
-10.1367859448818898
11
4.4073175984251964
21
-10.1292868897637796
0
LINE
8
BLACK
6
CONTINUOUS
10
4.4073175984251964
20
-10.1292868897637796
11
4.4073175984251964
21
-10.1067897244094489
0
LINE
8
BLACK
6
CONTINUOUS
10
4.4073175984251964
20
-10.1067897244094489
11
4.4110671259842515
21
-10.0992906299212599
0
LINE
8
BLACK
6
CONTINUOUS
10
4.4110671259842515
20
-10.0992906299212599
11
4.4148166535433067
21
-10.0955411023622048
0
LINE
8
BLACK
6
CONTINUOUS
10
4.4148166535433067
20
-10.0955411023622048
11
4.4223157086614169
21
-10.0917915748031497
0
LINE
8
BLACK
6
CONTINUOUS
10
4.4223157086614169
20
-10.0917915748031497
11
4.433564330708661
21
-10.0917915748031497
0
LINE
8
BLACK
6
CONTINUOUS
10
4.433564330708661
20
-10.0917915748031497
11
4.4410633858267712
21
-10.0955411023622048
0
LINE
8
BLACK
6
CONTINUOUS
10
4.4410633858267712
20
-10.0955411023622048
11
4.4448129133858263
21
-10.0992906299212599
0
LINE
8
BLACK
6
CONTINUOUS
10
4.4448129133858263
20
-10.0992906299212599
11
4.4485624409448814
21
-10.1067897244094489
0
LINE
8
BLACK
6
CONTINUOUS
10
4.4485624409448814
20
-10.1067897244094489
11
4.4485624409448814
21
-10.1292868897637796
0
LINE
8
BLACK
6
CONTINUOUS
10
4.4485624409448814
20
-10.1292868897637796
11
4.4448129133858263
21
-10.1367859448818898
0
LINE
8
BLACK
6
CONTINUOUS
10
4.4448129133858263
20
-10.1367859448818898
11
4.4410633858267712
21
-10.1405355118110236
0
LINE
8
BLACK
6
CONTINUOUS
10
4.4410633858267712
20
-10.1405355118110236
11
4.433564330708661
21
-10.1442850393700787
0
LINE
8
BLACK
6
CONTINUOUS
10
4.433564330708661
20
-10.1442850393700787
11
4.4223157086614169
21
-10.1442850393700787
0
LINE
8
BLACK
6
CONTINUOUS
10
4.4710596456692908
20
-10.0917915748031497
11
4.5010558661417326
21
-10.0917915748031497
0
LINE
8
BLACK
6
CONTINUOUS
10
4.4823082283464561
20
-10.0655448818897639
11
4.4823082283464561
21
-10.1330364173228347
0
LINE
8
BLACK
6
CONTINUOUS
10
4.4823082283464561
20
-10.1330364173228347
11
4.4860577559055121
21
-10.1405355118110236
0
LINE
8
BLACK
6
CONTINUOUS
10
4.4860577559055121
20
-10.1405355118110236
11
4.4935568110236224
21
-10.1442850393700787
0
LINE
8
BLACK
6
CONTINUOUS
10
4.4935568110236224
20
-10.1442850393700787
11
4.5010558661417326
21
-10.1442850393700787
0
LINE
8
BLACK
6
CONTINUOUS
10
4.5872951181102364
20
-10.0917915748031497
11
4.5872951181102364
21
-10.1705317322834645
0
LINE
8
BLACK
6
CONTINUOUS
10
4.5872951181102364
20
-10.0955411023622048
11
4.5947941732283466
21
-10.0917915748031497
0
LINE
8
BLACK
6
CONTINUOUS
10
4.5947941732283466
20
-10.0917915748031497
11
4.6097923228346458
21
-10.0917915748031497
0
LINE
8
BLACK
6
CONTINUOUS
10
4.6097923228346458
20
-10.0917915748031497
11
4.617291377952756
21
-10.0955411023622048
0
LINE
8
BLACK
6
CONTINUOUS
10
4.617291377952756
20
-10.0955411023622048
11
4.6210409055118111
21
-10.0992906299212599
0
LINE
8
BLACK
6
CONTINUOUS
10
4.6210409055118111
20
-10.0992906299212599
11
4.6247904330708662
21
-10.1067897244094489
0
LINE
8
BLACK
6
CONTINUOUS
10
4.6247904330708662
20
-10.1067897244094489
11
4.6247904330708662
21
-10.1292868897637796
0
LINE
8
BLACK
6
CONTINUOUS
10
4.6247904330708662
20
-10.1292868897637796
11
4.6210409055118111
21
-10.1367859448818898
0
LINE
8
BLACK
6
CONTINUOUS
10
4.6210409055118111
20
-10.1367859448818898
11
4.617291377952756
21
-10.1405355118110236
0
LINE
8
BLACK
6
CONTINUOUS
10
4.617291377952756
20
-10.1405355118110236
11
4.6097923228346458
21
-10.1442850393700787
0
LINE
8
BLACK
6
CONTINUOUS
10
4.6097923228346458
20
-10.1442850393700787
11
4.5947941732283466
21
-10.1442850393700787
0
LINE
8
BLACK
6
CONTINUOUS
10
4.5947941732283466
20
-10.1442850393700787
11
4.5872951181102364
21
-10.1405355118110236
0
LINE
8
BLACK
6
CONTINUOUS
10
4.6697848031496063
20
-10.1442850393700787
11
4.6622857480314961
21
-10.1405355118110236
0
LINE
8
BLACK
6
CONTINUOUS
10
4.6622857480314961
20
-10.1405355118110236
11
4.658536220472441
21
-10.1330364173228347
0
LINE
8
BLACK
6
CONTINUOUS
10
4.658536220472441
20
-10.1330364173228347
11
4.658536220472441
21
-10.0655448818897639
0
LINE
8
BLACK
6
CONTINUOUS
10
4.7335268503937007
20
-10.1442850393700787
11
4.7335268503937007
21
-10.1030401968503938
0
LINE
8
BLACK
6
CONTINUOUS
10
4.7335268503937007
20
-10.1030401968503938
11
4.7297773228346456
21
-10.0955411023622048
0
LINE
8
BLACK
6
CONTINUOUS
10
4.7297773228346456
20
-10.0955411023622048
11
4.7222782677165354
21
-10.0917915748031497
0
LINE
8
BLACK
6
CONTINUOUS
10
4.7222782677165354
20
-10.0917915748031497
11
4.7072801181102362
21
-10.0917915748031497
0
LINE
8
BLACK
6
CONTINUOUS
10
4.7072801181102362
20
-10.0917915748031497
11
4.6997810629921259
21
-10.0955411023622048
0
LINE
8
BLACK
6
CONTINUOUS
10
4.7335268503937007
20
-10.1405355118110236
11
4.7260277952755905
21
-10.1442850393700787
0
LINE
8
BLACK
6
CONTINUOUS
10
4.7260277952755905
20
-10.1442850393700787
11
4.7072801181102362
21
-10.1442850393700787
0
LINE
8
BLACK
6
CONTINUOUS
10
4.7072801181102362
20
-10.1442850393700787
11
4.6997810629921259
21
-10.1405355118110236
0
LINE
8
BLACK
6
CONTINUOUS
10
4.6997810629921259
20
-10.1405355118110236
11
4.6960315354330708
21
-10.1330364173228347
0
LINE
8
BLACK
6
CONTINUOUS
10
4.6960315354330708
20
-10.1330364173228347
11
4.6960315354330708
21
-10.1255373622047244
0
LINE
8
BLACK
6
CONTINUOUS
10
4.6960315354330708
20
-10.1255373622047244
11
4.6997810629921259
21
-10.1180383070866142
0
LINE
8
BLACK
6
CONTINUOUS
10
4.6997810629921259
20
-10.1180383070866142
11
4.7072801181102362
21
-10.1142887795275591
0
LINE
8
BLACK
6
CONTINUOUS
10
4.7072801181102362
20
-10.1142887795275591
11
4.7260277952755905
21
-10.1142887795275591
0
LINE
8
BLACK
6
CONTINUOUS
10
4.7260277952755905
20
-10.1142887795275591
11
4.7335268503937007
21
-10.110539251968504
0
LINE
8
BLACK
6
CONTINUOUS
10
4.7597735826771652
20
-10.0917915748031497
11
4.7897698031496061
21
-10.0917915748031497
0
LINE
8
BLACK
6
CONTINUOUS
10
4.7710221653543305
20
-10.0655448818897639
11
4.7710221653543305
21
-10.1330364173228347
0
LINE
8
BLACK
6
CONTINUOUS
10
4.7710221653543305
20
-10.1330364173228347
11
4.7747716929133857
21
-10.1405355118110236
0
LINE
8
BLACK
6
CONTINUOUS
10
4.7747716929133857
20
-10.1405355118110236
11
4.7822707480314959
21
-10.1442850393700787
0
LINE
8
BLACK
6
CONTINUOUS
10
4.7822707480314959
20
-10.1442850393700787
11
4.7897698031496061
21
-10.1442850393700787
0
LINE
8
BLACK
6
CONTINUOUS
10
4.8460127952755903
20
-10.1405355118110236
11
4.83851374015748
21
-10.1442850393700787
0
LINE
8
BLACK
6
CONTINUOUS
10
4.83851374015748
20
-10.1442850393700787
11
4.8235155905511808
21
-10.1442850393700787
0
LINE
8
BLACK
6
CONTINUOUS
10
4.8235155905511808
20
-10.1442850393700787
11
4.8160165354330706
21
-10.1405355118110236
0
LINE
8
BLACK
6
CONTINUOUS
10
4.8160165354330706
20
-10.1405355118110236
11
4.8122670078740155
21
-10.1330364173228347
0
LINE
8
BLACK
6
CONTINUOUS
10
4.8122670078740155
20
-10.1330364173228347
11
4.8122670078740155
21
-10.1030401968503938
0
LINE
8
BLACK
6
CONTINUOUS
10
4.8122670078740155
20
-10.1030401968503938
11
4.8160165354330706
21
-10.0955411023622048
0
LINE
8
BLACK
6
CONTINUOUS
10
4.8160165354330706
20
-10.0955411023622048
11
4.8235155905511808
21
-10.0917915748031497
0
LINE
8
BLACK
6
CONTINUOUS
10
4.8235155905511808
20
-10.0917915748031497
11
4.83851374015748
21
-10.0917915748031497
0
LINE
8
BLACK
6
CONTINUOUS
10
4.83851374015748
20
-10.0917915748031497
11
4.8460127952755903
21
-10.0955411023622048
0
LINE
8
BLACK
6
CONTINUOUS
10
4.8460127952755903
20
-10.0955411023622048
11
4.8497623228346454
21
-10.1030401968503938
0
LINE
8
BLACK
6
CONTINUOUS
10
4.8497623228346454
20
-10.1030401968503938
11
4.8497623228346454
21
-10.110539251968504
0
LINE
8
BLACK
6
CONTINUOUS
10
4.8497623228346454
20
-10.110539251968504
11
4.8122670078740155
21
-10.1180383070866142
0
LINE
8
BLACK
6
CONTINUOUS
10
4.9172538976377949
20
-10.1442850393700787
11
4.9172538976377949
21
-10.0655448818897639
0
LINE
8
BLACK
6
CONTINUOUS
10
4.9172538976377949
20
-10.1405355118110236
11
4.9097548425196846
21
-10.1442850393700787
0
LINE
8
BLACK
6
CONTINUOUS
10
4.9097548425196846
20
-10.1442850393700787
11
4.8947566929133854
21
-10.1442850393700787
0
LINE
8
BLACK
6
CONTINUOUS
10
4.8947566929133854
20
-10.1442850393700787
11
4.8872576377952752
21
-10.1405355118110236
0
LINE
8
BLACK
6
CONTINUOUS
10
4.8872576377952752
20
-10.1405355118110236
11
4.8835081102362201
21
-10.1367859448818898
0
LINE
8
BLACK
6
CONTINUOUS
10
4.8835081102362201
20
-10.1367859448818898
11
4.879758582677165
21
-10.1292868897637796
0
LINE
8
BLACK
6
CONTINUOUS
10
4.879758582677165
20
-10.1292868897637796
11
4.879758582677165
21
-10.1067897244094489
0
LINE
8
BLACK
6
CONTINUOUS
10
4.879758582677165
20
-10.1067897244094489
11
4.8835081102362201
21
-10.0992906299212599
0
LINE
8
BLACK
6
CONTINUOUS
10
4.8835081102362201
20
-10.0992906299212599
11
4.8872576377952752
21
-10.0955411023622048
0
LINE
8
BLACK
6
CONTINUOUS
10
4.8872576377952752
20
-10.0955411023622048
11
4.8947566929133854
21
-10.0917915748031497
0
LINE
8
BLACK
6
CONTINUOUS
10
4.8947566929133854
20
-10.0917915748031497
11
4.9097548425196846
21
-10.0917915748031497
0
LINE
8
BLACK
6
CONTINUOUS
10
4.9097548425196846
20
-10.0917915748031497
11
4.9172538976377949
21
-10.0955411023622048
0
LINE
8
BLACK
6
CONTINUOUS
10
4.9472501574803145
20
-10.1742812598425196
11
4.9509996850393696
21
-10.1705317322834645
0
LINE
8
BLACK
6
CONTINUOUS
10
4.9509996850393696
20
-10.1705317322834645
11
4.9584987401574798
21
-10.1592831496062992
0
LINE
8
BLACK
6
CONTINUOUS
10
4.9584987401574798
20
-10.1592831496062992
11
4.9622482677165349
21
-10.151784094488189
0
LINE
8
BLACK
6
CONTINUOUS
10
4.9622482677165349
20
-10.151784094488189
11
4.96599779527559
21
-10.1405355118110236
0
LINE
8
BLACK
6
CONTINUOUS
10
4.96599779527559
20
-10.1405355118110236
11
4.9697473228346452
21
-10.1217878346456693
0
LINE
8
BLACK
6
CONTINUOUS
10
4.9697473228346452
20
-10.1217878346456693
11
4.9697473228346452
21
-10.1067897244094489
0
LINE
8
BLACK
6
CONTINUOUS
10
4.9697473228346452
20
-10.1067897244094489
11
4.96599779527559
21
-10.0880420472440946
0
LINE
8
BLACK
6
CONTINUOUS
10
4.96599779527559
20
-10.0880420472440946
11
4.9622482677165349
21
-10.0767934645669293
0
LINE
8
BLACK
6
CONTINUOUS
10
4.9622482677165349
20
-10.0767934645669293
11
4.9584987401574798
21
-10.069294409448819
0
LINE
8
BLACK
6
CONTINUOUS
10
4.9584987401574798
20
-10.069294409448819
11
4.9509996850393696
21
-10.058045787401575
0
LINE
8
BLACK
6
CONTINUOUS
10
4.9509996850393696
20
-10.058045787401575
11
4.9472501574803145
21
-10.0542962598425198
  0
ENDSEC
  0
EOF
