M48
; DRILL file {KiCad 8.0.0~rc2} date 2024-02-15T08:29:33+0100
; FORMAT={-:-/ absolute / inch / decimal}
; #@! TF.CreationDate,2024-02-15T08:29:33+01:00
; #@! TF.GenerationSoftware,Kicad,Pcbnew,8.0.0~rc2
; #@! TF.FileFunction,Plated,1,2,PTH
FMAT,2
INCH
; #@! TA.AperFunction,Plated,PTH,ViaDrill
T1C0.0118
; #@! TA.AperFunction,Plated,PTH,ComponentDrill
T2C0.0276
; #@! TA.AperFunction,Plated,PTH,ComponentDrill
T3C0.0315
; #@! TA.AperFunction,Plated,PTH,ComponentDrill
T4C0.0433
; #@! TA.AperFunction,Plated,PTH,ComponentDrill
T5C0.0787
%
G90
G05
T1
X3.0884Y-4.4303
X3.1384Y-3.6553
X3.1384Y-3.8303
X3.1384Y-5.2303
X3.1569Y-6.0053
X5.7384Y-2.4053
X6.5884Y-2.1811
X7.3884Y-2.1811
X8.1884Y-2.1825
X8.5884Y-2.3053
X8.6134Y-2.3817
X8.6884Y-2.3053
X8.7134Y-2.3303
X8.7134Y-2.4423
X8.7384Y-2.2553
X8.8384Y-1.9303
X8.8634Y-2.2053
X8.8634Y-2.2553
X8.8917Y-1.9836
X8.9819Y-2.2053
X8.9844Y-2.2565
X8.9859Y-1.7529
X8.9884Y-1.6841
X8.9884Y-2.0553
X8.9884Y-2.4303
X9.0213Y-1.9553
X9.0218Y-2.3803
X9.0384Y-1.8553
X9.1134Y-1.7553
X9.1634Y-1.9053
X9.1869Y-2.3568
X9.1879Y-1.7053
X9.2384Y-1.9553
X9.2384Y-2.0553
X9.2384Y-2.2553
X9.2565Y-1.7984
X9.2634Y-2.3053
X9.2815Y-1.7734
X9.35Y-2.1553
X9.3648Y-1.9068
X9.4134Y-1.8803
X9.5384Y-1.9303
X9.5572Y-2.4512
X9.5884Y-2.4553
X9.6384Y-2.4553
X9.7884Y-2.5803
X9.7884Y-6.0803
X9.8134Y-8.2553
X9.8384Y-2.6053
X9.8634Y-2.4553
X9.8827Y-3.8375
X9.9134Y-1.8303
X9.9465Y-2.2553
T2
X3.0134Y-2.4553
X3.2134Y-2.4553
X3.6665Y-2.4527
X3.8303Y-2.338
X8.6634Y-1.9053
X8.6634Y-2.1053
T3
X8.7882Y-1.7063
X8.7882Y-1.8063
X8.7882Y-1.9063
X8.7882Y-2.0063
X8.7882Y-2.1063
X8.7882Y-2.2063
X8.7882Y-2.3063
X8.7882Y-2.4063
X9.0882Y-1.7063
X9.0882Y-1.8063
X9.0882Y-1.9063
X9.0882Y-2.0063
X9.0882Y-2.1063
X9.0882Y-2.2063
X9.0882Y-2.3063
X9.0882Y-2.4063
T4
X2.5775Y-8.2603
X2.5775Y-8.4375
X2.5854Y-8.9317
X2.5854Y-9.1089
X2.6234Y-3.6603
X2.6234Y-3.8375
X2.6234Y-4.4503
X2.6234Y-4.6275
X2.6234Y-6.0431
X2.6234Y-6.2203
X2.6234Y-6.8403
X2.6234Y-7.0175
X2.6254Y-5.2417
X2.6254Y-5.4189
X2.6254Y-7.6317
X2.6254Y-7.8089
X2.8334Y-8.2603
X2.8334Y-8.4375
X2.8413Y-8.9317
X2.8413Y-9.1089
X2.8793Y-3.6603
X2.8793Y-3.8375
X2.8793Y-4.4503
X2.8793Y-4.6275
X2.8793Y-6.0431
X2.8793Y-6.2203
X2.8793Y-6.8403
X2.8793Y-7.0175
X2.8813Y-5.2417
X2.8813Y-5.4189
X2.8813Y-7.6317
X2.8813Y-7.8089
X3.4654Y-9.3117
X3.4654Y-9.4889
X3.7213Y-9.3117
X3.7213Y-9.4889
X4.3054Y-1.9817
X4.3054Y-2.1589
X4.3054Y-9.3117
X4.3054Y-9.4889
X4.5613Y-1.9817
X4.5613Y-2.1589
X4.5613Y-9.3117
X4.5613Y-9.4889
X5.0934Y-1.9803
X5.0934Y-2.1575
X5.0954Y-9.3117
X5.0954Y-9.4889
X5.3493Y-1.9803
X5.3493Y-2.1575
X5.3513Y-9.3117
X5.3513Y-9.4889
X5.8875Y-1.9803
X5.8875Y-2.1575
X5.8954Y-9.3117
X5.8954Y-9.4889
X6.1434Y-1.9803
X6.1434Y-2.1575
X6.1513Y-9.3117
X6.1513Y-9.4889
X6.6854Y-9.3117
X6.6854Y-9.4889
X6.6875Y-1.9803
X6.6875Y-2.1575
X6.9413Y-9.3117
X6.9413Y-9.4889
X6.9434Y-1.9803
X6.9434Y-2.1575
X7.4775Y-1.9803
X7.4775Y-2.1575
X7.4775Y-9.3131
X7.4775Y-9.4903
X7.7334Y-1.9803
X7.7334Y-2.1575
X7.7334Y-9.3131
X7.7334Y-9.4903
X8.2754Y-1.9817
X8.2754Y-2.1589
X8.2754Y-9.3117
X8.2754Y-9.4889
X8.5313Y-1.9817
X8.5313Y-2.1589
X8.5313Y-9.3117
X8.5313Y-9.4889
X9.1104Y-9.3098
X9.1104Y-9.487
X9.3134Y-1.7303
X9.3134Y-2.3303
X9.3663Y-9.3098
X9.3663Y-9.487
X9.4134Y-1.7303
X9.4134Y-2.3303
X9.5134Y-1.7303
X9.5134Y-2.3303
X9.6134Y-1.7303
X9.6134Y-2.3303
X9.7134Y-1.7303
X9.7134Y-2.3303
X9.8134Y-1.7303
X9.8134Y-2.3303
X9.9134Y-1.7303
X9.9134Y-2.3303
X9.9575Y-3.6603
X9.9575Y-3.8375
X9.9575Y-4.4503
X9.9575Y-4.6275
X9.9575Y-5.2403
X9.9575Y-5.4175
X9.9575Y-6.0403
X9.9575Y-6.2175
X9.9575Y-6.8331
X9.9575Y-7.0103
X9.9575Y-7.6331
X9.9575Y-7.8103
X9.9854Y-8.2667
X9.9854Y-8.4439
X9.9975Y-2.8703
X9.9975Y-3.0475
X9.9975Y-8.9331
X9.9975Y-9.1103
X10.0134Y-1.7303
X10.0134Y-2.3303
X10.0854Y-1.9417
X10.0854Y-2.1189
X10.1134Y-1.7303
X10.1134Y-2.3303
X10.2134Y-1.7303
X10.2134Y-2.3303
X10.2134Y-3.6603
X10.2134Y-3.8375
X10.2134Y-4.4503
X10.2134Y-4.6275
X10.2134Y-5.2403
X10.2134Y-5.4175
X10.2134Y-6.0403
X10.2134Y-6.2175
X10.2134Y-6.8331
X10.2134Y-7.0103
X10.2134Y-7.6331
X10.2134Y-7.8103
X10.2413Y-8.2667
X10.2413Y-8.4439
X10.2534Y-2.8703
X10.2534Y-3.0475
X10.2534Y-8.9331
X10.2534Y-9.1103
X10.3134Y-1.7303
X10.3134Y-2.3303
X10.3413Y-1.9417
X10.3413Y-2.1189
X10.4134Y-1.7303
X10.4134Y-2.3303
T5
X2.4499Y-2.5429
X2.6468Y-2.5488
X2.8436Y-2.5429
X3.2266Y-1.7668
X3.2266Y-2.1605
X3.2325Y-1.9637
M30
