%TF.GenerationSoftware,KiCad,Pcbnew,8.0.0~rc2*%
%TF.CreationDate,2024-02-17T18:21:20+01:00*%
%TF.ProjectId,MFD,4d46442e-6b69-4636-9164-5f7063625858,rev?*%
%TF.SameCoordinates,Original*%
%TF.FileFunction,Legend,Bot*%
%TF.FilePolarity,Positive*%
%FSLAX46Y46*%
G04 Gerber Fmt 4.6, Leading zero omitted, Abs format (unit mm)*
G04 Created by KiCad (PCBNEW 8.0.0~rc2) date 2024-02-17 18:21:20*
%MOMM*%
%LPD*%
G01*
G04 APERTURE LIST*
%ADD10C,0.150000*%
%ADD11C,0.120000*%
G04 APERTURE END LIST*
D10*
X262491427Y-47727202D02*
X262348570Y-47774821D01*
X262348570Y-47774821D02*
X262110475Y-47774821D01*
X262110475Y-47774821D02*
X262015237Y-47727202D01*
X262015237Y-47727202D02*
X261967618Y-47679582D01*
X261967618Y-47679582D02*
X261919999Y-47584344D01*
X261919999Y-47584344D02*
X261919999Y-47489106D01*
X261919999Y-47489106D02*
X261967618Y-47393868D01*
X261967618Y-47393868D02*
X262015237Y-47346249D01*
X262015237Y-47346249D02*
X262110475Y-47298630D01*
X262110475Y-47298630D02*
X262300951Y-47251011D01*
X262300951Y-47251011D02*
X262396189Y-47203392D01*
X262396189Y-47203392D02*
X262443808Y-47155773D01*
X262443808Y-47155773D02*
X262491427Y-47060535D01*
X262491427Y-47060535D02*
X262491427Y-46965297D01*
X262491427Y-46965297D02*
X262443808Y-46870059D01*
X262443808Y-46870059D02*
X262396189Y-46822440D01*
X262396189Y-46822440D02*
X262300951Y-46774821D01*
X262300951Y-46774821D02*
X262062856Y-46774821D01*
X262062856Y-46774821D02*
X261919999Y-46822440D01*
X261586665Y-46774821D02*
X261348570Y-47774821D01*
X261348570Y-47774821D02*
X261158094Y-47060535D01*
X261158094Y-47060535D02*
X260967618Y-47774821D01*
X260967618Y-47774821D02*
X260729523Y-46774821D01*
X260586666Y-47870059D02*
X259824761Y-47870059D01*
X259015237Y-47774821D02*
X259348570Y-47298630D01*
X259586665Y-47774821D02*
X259586665Y-46774821D01*
X259586665Y-46774821D02*
X259205713Y-46774821D01*
X259205713Y-46774821D02*
X259110475Y-46822440D01*
X259110475Y-46822440D02*
X259062856Y-46870059D01*
X259062856Y-46870059D02*
X259015237Y-46965297D01*
X259015237Y-46965297D02*
X259015237Y-47108154D01*
X259015237Y-47108154D02*
X259062856Y-47203392D01*
X259062856Y-47203392D02*
X259110475Y-47251011D01*
X259110475Y-47251011D02*
X259205713Y-47298630D01*
X259205713Y-47298630D02*
X259586665Y-47298630D01*
X258634284Y-47727202D02*
X258491427Y-47774821D01*
X258491427Y-47774821D02*
X258253332Y-47774821D01*
X258253332Y-47774821D02*
X258158094Y-47727202D01*
X258158094Y-47727202D02*
X258110475Y-47679582D01*
X258110475Y-47679582D02*
X258062856Y-47584344D01*
X258062856Y-47584344D02*
X258062856Y-47489106D01*
X258062856Y-47489106D02*
X258110475Y-47393868D01*
X258110475Y-47393868D02*
X258158094Y-47346249D01*
X258158094Y-47346249D02*
X258253332Y-47298630D01*
X258253332Y-47298630D02*
X258443808Y-47251011D01*
X258443808Y-47251011D02*
X258539046Y-47203392D01*
X258539046Y-47203392D02*
X258586665Y-47155773D01*
X258586665Y-47155773D02*
X258634284Y-47060535D01*
X258634284Y-47060535D02*
X258634284Y-46965297D01*
X258634284Y-46965297D02*
X258586665Y-46870059D01*
X258586665Y-46870059D02*
X258539046Y-46822440D01*
X258539046Y-46822440D02*
X258443808Y-46774821D01*
X258443808Y-46774821D02*
X258205713Y-46774821D01*
X258205713Y-46774821D02*
X258062856Y-46822440D01*
X257777141Y-46774821D02*
X257205713Y-46774821D01*
X257491427Y-47774821D02*
X257491427Y-46774821D01*
X256348570Y-47774821D02*
X256919998Y-47774821D01*
X256634284Y-47774821D02*
X256634284Y-46774821D01*
X256634284Y-46774821D02*
X256729522Y-46917678D01*
X256729522Y-46917678D02*
X256824760Y-47012916D01*
X256824760Y-47012916D02*
X256919998Y-47060535D01*
%TO.C,U2*%
X235289999Y-42680002D02*
X265769999Y-42680002D01*
X235289999Y-60460002D02*
X235289999Y-42680002D01*
X265769999Y-42680002D02*
X265769999Y-47760002D01*
X265769999Y-47760002D02*
X268309999Y-47760002D01*
X265769999Y-55380002D02*
X265769999Y-60460002D01*
X265769999Y-60460002D02*
X235289999Y-60460002D01*
X268309999Y-47760002D02*
X268309999Y-55380002D01*
X268309999Y-55380002D02*
X265769999Y-55380002D01*
D11*
%TO.C,SW_RST1*%
X255919999Y-50820002D02*
X255919999Y-52320002D01*
X257169999Y-54820002D02*
X261669999Y-54820002D01*
X261669999Y-48320002D02*
X257169999Y-48320002D01*
X262919999Y-52320002D02*
X262919999Y-50820002D01*
%TD*%
M02*
